<?xml version="1.0" standalone="no"?>
<!DOCTYPE svg PUBLIC "-//W3C//DTD SVG 20010904//EN"
 "http://www.w3.org/TR/2001/REC-SVG-20010904/DTD/svg10.dtd">
<svg version="1.0" xmlns="http://www.w3.org/2000/svg"
 width="700.000000pt" height="700.000000pt" viewBox="0 0 700.000000 700.000000"
 preserveAspectRatio="xMidYMid meet">
<metadata>
Created by potrace 1.11, written by Peter Selinger 2001-2013
</metadata>
<g transform="translate(0.000000,700.000000) scale(0.100000,-0.100000)"
fill="#000000" stroke="none">
<path d="M3312 6817 c-178 -126 -240 -170 -352 -248 -36 -25 -87 -61 -115 -80
-27 -20 -178 -125 -335 -234 -157 -109 -305 -213 -330 -230 -281 -197 -1059
-740 -1214 -847 -110 -76 -202 -141 -204 -143 -3 -2 -5 -469 -5 -1036 0 -1026
0 -1032 20 -1048 11 -9 163 -115 337 -236 174 -121 369 -257 434 -302 64 -46
124 -87 132 -93 8 -6 209 -146 445 -311 951 -664 1170 -817 1255 -876 49 -35
93 -63 98 -63 4 0 7 35 6 78 -1 42 -5 307 -9 587 -4 281 -8 596 -10 700 -2
105 -4 300 -6 433 l-2 244 -71 52 c-39 29 -93 68 -121 88 -27 19 -156 111
-285 203 -129 93 -404 290 -610 438 -206 147 -382 273 -390 280 -15 12 -76 56
-165 119 -126 88 -521 372 -525 377 -3 3 -31 24 -63 45 -32 21 -60 44 -64 49
-6 10 43 -23 394 -264 213 -146 742 -509 940 -644 65 -44 228 -156 363 -248
135 -93 289 -198 343 -235 54 -37 138 -95 188 -129 49 -35 94 -63 100 -63 11
0 942 651 937 655 -11 9 -185 132 -194 138 -7 4 -162 -98 -366 -241 -194 -136
-359 -251 -366 -256 -8 -4 -106 57 -265 165 -357 244 -413 282 -587 401 -449
306 -896 610 -1147 781 -218 148 -283 197 -283 213 0 16 47 53 203 158 351
238 738 502 962 656 94 64 241 164 327 223 86 58 185 126 220 150 175 121 318
217 318 213 0 -3 -37 -31 -82 -63 -46 -31 -87 -61 -93 -66 -15 -12 -134 -98
-490 -354 -176 -126 -432 -310 -570 -409 -137 -99 -353 -254 -478 -344 -203
-146 -226 -166 -210 -177 10 -7 23 -16 28 -20 6 -5 43 -32 83 -61 59 -43 76
-51 91 -42 11 5 207 142 438 304 230 162 478 337 551 388 73 51 264 186 425
299 161 113 294 205 296 203 2 -2 4 -242 5 -533 l1 -529 -469 -329 c-258 -180
-478 -335 -488 -343 -17 -14 -9 -22 119 -113 76 -53 182 -129 236 -168 l98
-71 97 67 c53 36 167 115 252 175 85 60 215 150 288 201 l134 91 116 -78 c65
-43 160 -108 212 -144 52 -37 217 -149 365 -250 438 -297 953 -671 1206 -874
l55 -45 105 75 c57 42 109 81 116 87 7 8 13 70 16 174 l4 162 -116 72 c-195
121 -888 586 -944 634 -9 8 -19 15 -22 15 -2 0 -77 53 -167 118 -90 65 -179
129 -198 142 -19 14 -37 27 -40 30 -3 3 -68 52 -145 110 -77 57 -183 139 -237
182 l-96 77 4 273 c2 150 6 389 8 531 2 142 6 260 8 261 1 1 206 -141 453
-316 248 -175 509 -360 580 -410 72 -50 204 -144 293 -207 90 -64 174 -123
185 -131 12 -8 62 -43 111 -77 49 -35 93 -63 97 -63 5 0 51 32 102 72 50 39
93 72 94 72 1 1 -104 78 -234 171 -130 94 -266 191 -302 218 -36 26 -77 55
-91 65 -41 28 -948 680 -1064 764 -28 21 -70 50 -93 65 -24 15 -43 31 -43 36
0 4 73 -43 163 -104 89 -61 218 -149 287 -195 69 -47 186 -126 260 -177 240
-165 382 -261 545 -372 659 -447 662 -449 662 -471 0 -9 -56 -52 -141 -108
-78 -51 -269 -177 -426 -281 -157 -103 -316 -208 -355 -233 -38 -26 -72 -48
-75 -50 -6 -5 37 -40 127 -102 l72 -51 618 412 c340 226 619 412 620 413 2 2
-211 155 -301 216 -12 8 -102 71 -200 140 -98 69 -187 132 -199 140 -24 17
-363 253 -387 270 -469 329 -1629 1140 -1632 1139 -2 0 -81 -55 -176 -122z
m185 -384 c-3 -10 -5 -2 -5 17 0 19 2 27 5 18 2 -10 2 -26 0 -35z m234 10 c13
-16 12 -17 -3 -4 -10 7 -18 15 -18 17 0 8 8 3 21 -13z m109 -80 c0 -7 -35 16
-65 42 -23 20 -18 19 18 -6 26 -18 47 -34 47 -36z m-339 -65 c1 -62 2 -153 4
-203 2 -49 6 -182 9 -295 3 -113 8 -302 11 -420 4 -118 8 -266 9 -328 2 -62 6
-115 9 -118 3 -4 32 8 63 25 32 17 62 31 67 31 5 0 -21 -26 -57 -57 -69 -59
-75 -68 -53 -76 7 -3 112 -76 232 -164 121 -87 326 -235 455 -328 129 -93 271
-195 315 -227 44 -32 152 -109 240 -173 88 -63 169 -121 180 -129 11 -8 128
-92 260 -186 237 -170 345 -254 190 -148 -44 30 -143 97 -220 150 -77 52 -189
129 -250 170 -184 125 -1151 784 -1298 885 -76 52 -140 93 -142 91 -5 -5 -11
-42 -20 -127 -6 -59 -15 -80 -16 -40 0 13 -2 33 -5 44 -2 11 -6 40 -10 65 -3
25 -9 49 -14 53 -6 7 -193 -113 -680 -436 -144 -95 -188 -122 -170 -104 11 12
373 282 605 453 123 90 211 157 213 164 1 4 -31 37 -73 74 -42 36 -72 66 -68
66 4 0 42 -18 83 -40 41 -22 77 -40 80 -40 3 0 6 33 6 73 1 39 4 200 7 357 10
444 20 929 21 992 2 106 16 59 17 -54z m-2420 -1475 c13 -16 12 -17 -3 -4 -17
13 -22 21 -14 21 2 0 10 -8 17 -17z m65 -44 c3 -6 -5 -3 -20 6 -14 10 -26 19
-26 22 0 7 39 -17 46 -28z m411 -596 c296 -213 666 -479 823 -592 157 -112
350 -252 430 -309 80 -58 159 -115 175 -126 191 -133 265 -192 266 -210 5
-148 14 -494 25 -941 3 -126 7 -279 9 -340 3 -109 -3 -135 -32 -135 -10 0
-461 319 -828 586 -24 18 -211 152 -665 479 -190 137 -389 280 -442 318 -54
37 -98 71 -98 73 0 3 51 -29 113 -72 61 -43 195 -134 297 -203 102 -69 190
-129 195 -133 6 -5 127 -88 270 -185 143 -97 348 -236 455 -309 107 -73 293
-199 413 -281 119 -81 226 -154 237 -162 19 -13 20 -11 21 50 0 35 2 98 4 141
3 68 1 78 -18 96 -12 10 -114 81 -227 157 -201 136 -385 261 -585 397 -55 38
-107 73 -115 78 -8 6 -103 70 -210 143 -464 315 -602 409 -708 481 l-114 76
-51 -28 c-29 -16 -79 -44 -112 -62 l-60 -32 46 43 c25 24 69 64 97 89 l51 45
6 205 c3 113 8 250 10 305 2 55 7 191 10 301 l7 202 -97 66 c-53 36 -100 66
-104 66 -3 0 -7 -33 -7 -72 -2 -107 -15 -636 -19 -763 -2 -60 -4 -166 -5 -234
0 -68 -2 -122 -5 -119 -5 5 -7 65 -20 558 -16 637 -16 711 -4 726 6 8 15 14
20 14 5 0 250 -174 546 -387z m1033 53 c0 -2 -8 -10 -17 -17 -16 -13 -17 -12
-4 4 13 16 21 21 21 13z m2981 -823 c13 -16 12 -17 -3 -4 -17 13 -22 21 -14
21 2 0 10 -8 17 -17z m-4400 -390 c13 -16 12 -17 -3 -4 -10 7 -18 15 -18 17 0
8 8 3 21 -13z"/>
<path d="M1514 3819 l-239 -167 2 -39 c0 -21 3 -84 4 -140 2 -57 7 -103 11
-103 4 0 149 92 322 204 174 113 316 203 316 201 0 -2 -137 -108 -305 -235
-168 -128 -305 -237 -305 -241 0 -5 12 -16 28 -26 15 -9 39 -26 53 -38 14 -11
36 -27 49 -35 12 -8 33 -23 45 -33 26 -19 -15 -45 446 279 30 21 110 77 177
124 l121 85 -47 32 c-26 18 -135 92 -243 166 l-196 133 -239 -167z"/>
<path d="M5954 4827 c-153 -112 -417 -303 -587 -426 -169 -123 -309 -227 -312
-231 -3 -4 38 -40 90 -80 l95 -73 137 105 c521 397 589 448 596 448 3 0 12 -6
20 -14 10 -10 13 -35 11 -87 -2 -41 -6 -198 -9 -349 -4 -151 -8 -338 -10 -415
-2 -77 -5 -207 -6 -288 0 -82 -3 -147 -5 -144 -5 5 -12 166 -19 492 -4 149 -8
322 -10 385 -2 63 -4 161 -4 218 l-1 103 -57 -37 c-32 -20 -79 -50 -105 -67
l-48 -32 5 -115 c3 -63 7 -187 10 -275 4 -150 15 -487 19 -584 1 -40 7 -48 71
-108 39 -36 80 -72 93 -80 12 -9 22 -20 22 -25 0 -7 -4 -7 -12 -1 -7 6 -56 33
-109 61 l-96 52 -359 -245 c-198 -134 -487 -331 -644 -437 -156 -106 -392
-267 -525 -356 -132 -90 -288 -196 -347 -235 -58 -40 -105 -74 -103 -77 2 -4
5 -68 7 -143 l3 -136 25 16 c24 16 345 234 735 500 105 71 262 178 350 238 88
60 207 141 265 180 58 40 148 101 200 137 52 35 152 104 223 152 70 48 127 84
127 79 0 -4 -10 -14 -22 -22 -21 -12 -1305 -934 -1748 -1255 -96 -69 -183
-126 -193 -126 -21 0 -34 30 -31 73 2 18 5 151 9 297 3 146 8 324 10 395 2 72
7 251 10 400 4 148 7 270 8 271 19 12 731 510 830 580 75 54 134 101 130 104
-5 4 -52 37 -105 74 l-96 66 -359 -250 c-197 -138 -374 -262 -393 -276 -19
-14 -75 -53 -125 -88 l-89 -63 -2 -244 c-1 -134 -5 -596 -9 -1027 l-7 -782
498 347 c275 191 577 401 671 467 95 67 247 173 338 236 92 63 228 158 303
211 75 52 314 218 530 369 371 258 392 275 393 304 3 146 1 2028 -3 2031 -2 3
-130 -86 -284 -198z m-164 -1821 c0 -3 -15 -14 -32 -26 l-33 -22 30 26 c31 27
35 29 35 22z"/>
<path d="M542 832 c-30 -23 -40 -83 -18 -116 29 -45 123 -44 141 1 11 30 -8
35 -32 8 -20 -21 -31 -25 -52 -20 -32 8 -41 21 -41 62 0 24 7 37 25 49 23 15
65 12 65 -6 0 -12 29 -20 35 -10 3 5 -3 18 -15 30 -25 25 -77 26 -108 2z"/>
<path d="M1083 833 c-4 -10 -11 -22 -17 -26 -8 -6 -7 -10 2 -14 6 -2 12 -22
12 -43 0 -21 3 -45 6 -54 7 -17 54 -22 54 -6 0 6 -7 10 -15 10 -11 0 -15 12
-15 45 0 33 4 45 15 45 8 0 15 5 15 10 0 6 -7 10 -15 10 -8 0 -15 6 -15 14 0
23 -19 29 -27 9z"/>
<path d="M1400 818 c0 -25 -3 -29 -12 -20 -18 18 -53 15 -71 -6 -23 -25 -21
-68 3 -92 22 -22 66 -27 73 -7 4 10 6 10 6 0 1 -7 8 -13 16 -13 12 0 15 16 15
85 0 69 -3 85 -15 85 -10 0 -15 -10 -15 -32z m-10 -47 c15 -30 12 -49 -11 -61
-25 -14 -49 2 -49 34 0 43 41 61 60 27z"/>
<path d="M1530 767 l0 -84 49 -1 c55 -1 68 8 77 55 8 43 -26 78 -67 69 -26 -5
-29 -3 -29 19 0 16 -6 25 -15 25 -12 0 -15 -16 -15 -83z m88 11 c30 -30 -2
-93 -36 -71 -21 13 -27 50 -12 69 15 17 32 18 48 2z"/>
<path d="M1890 765 c0 -69 3 -85 15 -85 11 0 15 11 15 36 0 35 1 35 37 32 33
-3 39 -7 43 -32 7 -44 30 -45 30 -2 0 19 -4 38 -10 41 -6 4 -5 13 2 25 9 14 9
25 0 44 -11 24 -17 26 -72 26 l-60 0 0 -85z m108 38 c2 -17 -3 -24 -20 -27
-45 -9 -58 -4 -58 25 0 25 3 27 38 26 30 -2 38 -6 40 -24z"/>
<path d="M2080 841 c0 -5 -8 -17 -17 -27 -13 -13 -14 -19 -5 -22 7 -2 12 -24
12 -58 0 -41 4 -54 15 -54 11 0 15 13 15 54 0 34 5 57 13 60 10 5 10 7 0 12
-18 8 -16 24 3 24 8 0 12 5 9 10 -8 13 -45 13 -45 1z"/>
<path d="M2150 765 c0 -69 3 -85 15 -85 12 0 15 16 15 85 0 69 -3 85 -15 85
-12 0 -15 -16 -15 -85z"/>
<path d="M690 744 c0 -50 3 -64 15 -64 11 0 15 12 15 44 0 37 5 48 27 64 l26
19 -41 0 -42 0 0 -63z"/>
<path d="M790 790 c-11 -11 -20 -31 -20 -45 0 -53 69 -85 105 -49 22 22 11 30
-20 14 -20 -11 -27 -11 -40 0 -26 22 -16 31 30 27 41 -3 45 -2 45 18 0 49 -64
71 -100 35z m68 -17 c2 -9 -7 -13 -28 -13 -28 0 -31 2 -20 15 15 18 41 16 48
-2z"/>
<path d="M929 790 c-23 -19 -23 -19 -3 -20 11 0 25 5 31 11 13 13 43 5 43 -10
0 -5 -18 -12 -40 -16 -27 -4 -41 -13 -45 -26 -11 -33 11 -48 69 -46 l53 1 -5
51 c-6 74 -52 98 -103 55z m71 -64 c0 -18 -39 -31 -52 -18 -15 15 0 32 28 32
14 0 24 -6 24 -14z"/>
<path d="M1180 790 c-11 -11 -20 -31 -20 -45 0 -52 69 -85 104 -49 23 23 8 39
-16 18 -14 -14 -23 -16 -35 -8 -25 15 -28 36 -7 34 11 -1 33 -2 51 -1 26 1 31
4 26 19 -19 52 -67 68 -103 32z m68 -18 c2 -8 -8 -12 -27 -12 -29 0 -39 9 -25
23 10 10 47 2 52 -11z"/>
<path d="M1675 793 c4 -10 15 -42 25 -70 19 -52 19 -53 -1 -63 -24 -14 -25
-30 0 -30 25 0 35 14 65 94 30 79 31 86 12 86 -12 0 -23 -23 -32 -68 -4 -23
-13 -26 -20 -6 -18 57 -28 74 -41 74 -10 0 -13 -6 -8 -17z"/>
<path d="M2220 790 c-11 -11 -20 -31 -20 -45 0 -14 9 -34 20 -45 11 -11 31
-20 45 -20 14 0 34 9 45 20 11 11 20 31 20 45 0 14 -9 34 -20 45 -11 11 -31
20 -45 20 -14 0 -34 -9 -45 -20z m68 -12 c32 -32 -9 -96 -44 -67 -26 22 -11
79 21 79 6 0 16 -5 23 -12z"/>
<path d="M2350 745 c0 -50 3 -65 14 -65 11 0 16 14 18 47 2 39 7 50 28 60 22
11 22 13 6 19 -11 4 -21 2 -27 -7 -6 -10 -9 -10 -9 -1 0 6 -7 12 -15 12 -12 0
-15 -14 -15 -65z"/>
<path d="M533 573 c-4 -10 -11 -22 -17 -26 -8 -6 -7 -10 2 -14 7 -3 12 -25 12
-59 0 -41 4 -54 15 -54 11 0 15 13 15 54 0 34 5 56 13 59 9 4 8 8 -3 16 -12 9
-12 11 3 17 9 3 14 10 11 15 -9 16 -44 10 -51 -8z"/>
<path d="M1120 505 c0 -69 3 -85 15 -85 12 0 15 14 15 62 l0 61 40 -61 c56
-88 70 -83 70 23 0 69 -3 85 -15 85 -12 0 -15 -14 -15 -62 l0 -61 -40 61 c-56
88 -70 83 -70 -23z"/>
<path d="M1800 505 c0 -69 3 -85 15 -85 10 0 15 11 15 35 0 34 1 35 39 35 50
0 75 23 66 59 -9 35 -21 41 -82 41 l-53 0 0 -85z m98 56 c8 -5 12 -17 10 -27
-2 -14 -13 -20 -41 -22 -35 -3 -37 -2 -37 27 0 27 3 31 28 31 15 0 33 -4 40
-9z"/>
<path d="M2200 580 c0 -5 7 -10 15 -10 8 0 15 5 15 10 0 6 -7 10 -15 10 -8 0
-15 -4 -15 -10z"/>
<path d="M2563 583 c-7 -3 -13 -11 -13 -18 0 -7 -6 -16 -12 -18 -10 -4 -10 -7
-1 -14 6 -5 13 -31 15 -58 3 -46 5 -50 31 -53 29 -4 37 12 12 22 -10 3 -15 19
-15 46 0 29 4 40 15 40 8 0 15 5 15 10 0 6 -6 10 -14 10 -8 0 -16 8 -18 18 -2
11 -9 17 -15 15z"/>
<path d="M600 484 c0 -49 3 -64 14 -64 11 0 16 14 18 47 2 38 8 50 26 59 28
14 19 21 -25 22 l-33 1 0 -65z"/>
<path d="M700 530 c-11 -11 -20 -31 -20 -45 0 -14 9 -34 20 -45 11 -11 31 -20
45 -20 14 0 34 9 45 20 11 11 20 31 20 45 0 14 -9 34 -20 45 -11 11 -31 20
-45 20 -14 0 -34 -9 -45 -20z m68 -12 c32 -32 1 -89 -37 -68 -26 13 -28 55 -3
69 22 13 26 13 40 -1z"/>
<path d="M830 485 c0 -51 3 -65 15 -65 11 0 15 12 15 49 0 35 4 51 16 55 26
10 34 -3 34 -55 0 -37 4 -49 15 -49 11 0 15 12 15 49 0 35 4 51 16 55 26 10
34 -3 34 -55 0 -37 4 -49 15 -49 19 0 21 100 3 118 -14 14 -54 16 -63 2 -4 -6
-13 -5 -25 3 -16 9 -24 9 -40 -1 -12 -7 -20 -8 -20 -2 0 5 -7 10 -15 10 -12 0
-15 -14 -15 -65z"/>
<path d="M1310 530 c-11 -11 -20 -31 -20 -45 0 -14 9 -34 20 -45 11 -11 31
-20 45 -20 14 0 34 9 45 20 11 11 20 31 20 45 0 14 -9 34 -20 45 -11 11 -31
20 -45 20 -14 0 -34 -9 -45 -20z m68 -12 c30 -30 -2 -93 -36 -71 -21 13 -27
50 -12 69 15 17 32 18 48 2z"/>
<path d="M1440 504 c0 -68 11 -82 65 -82 l45 1 0 64 c0 49 -3 63 -15 63 -12 0
-15 -11 -13 -46 1 -30 -4 -49 -13 -55 -25 -16 -34 -4 -37 49 -2 37 -7 52 -18
52 -10 0 -14 -12 -14 -46z"/>
<path d="M1580 485 c0 -51 3 -65 15 -65 11 0 15 12 15 49 0 35 4 51 16 55 26
10 34 -3 34 -55 0 -38 4 -49 15 -49 13 0 15 11 13 56 -3 66 -23 88 -58 66 -12
-7 -20 -8 -20 -2 0 5 -7 10 -15 10 -12 0 -15 -14 -15 -65z"/>
<path d="M1960 484 c0 -49 3 -64 14 -64 11 0 16 14 18 47 2 39 7 50 28 60 14
7 23 13 20 14 -3 1 -22 3 -42 4 l-38 4 0 -65z"/>
<path d="M2080 543 c-63 -23 -43 -123 25 -123 14 0 34 9 45 20 50 50 -2 127
-70 103z m48 -25 c32 -32 1 -89 -37 -68 -26 13 -28 55 -3 69 22 13 26 13 40
-1z"/>
<path d="M2200 471 c0 -54 -4 -81 -12 -84 -7 -2 -9 -8 -5 -13 4 -4 16 -3 25 2
24 16 31 174 7 174 -12 0 -15 -15 -15 -79z"/>
<path d="M2270 530 c-11 -11 -20 -31 -20 -45 0 -53 69 -85 105 -49 22 22 11
30 -20 14 -20 -11 -27 -11 -40 0 -25 21 -17 29 27 27 34 -2 43 2 46 16 5 25
-26 57 -55 57 -12 0 -32 -9 -43 -20z m68 -17 c2 -9 -7 -13 -27 -13 -31 0 -42
14 -18 23 19 8 40 3 45 -10z"/>
<path d="M2410 530 c-41 -41 -13 -110 46 -110 19 0 54 28 54 43 0 13 -23 7
-35 -9 -18 -26 -57 -1 -53 33 4 34 35 54 51 33 16 -20 37 -23 37 -5 0 35 -69
46 -100 15z"/>
</g>
</svg>
